<svg version="1.1" id="Layer_1" xmlns="http://www.w3.org/2000/svg" xmlns:xlink="http://www.w3.org/1999/xlink" x="0px" y="0px"
	 width="100%" viewBox="0 0 500 146" enable-background="new 0 0 500 146" xml:space="preserve">
<path fill="#FFFFFF" opacity="1.000000" stroke="none" 
	d="
M481.000580,147.000000 
	C320.667084,147.000000 160.833817,147.000000 1.000403,147.000000 
	C1.000269,98.333527 1.000269,49.667061 1.000134,1.000443 
	C167.666412,1.000295 334.332825,1.000295 500.999451,1.000147 
	C500.999634,49.666393 500.999634,98.332787 500.999817,146.999588 
	C494.500275,147.000000 488.000519,147.000000 481.000580,147.000000 
M321.374786,93.113129 
	C318.061066,89.899246 314.747314,86.685364 311.226349,83.270493 
	C315.809723,78.504936 319.928253,74.222687 323.968414,70.021912 
	C313.844879,66.169151 308.179138,72.511757 301.750122,79.517227 
	C301.750122,68.675262 301.750122,59.427399 301.750122,50.348557 
	C298.307739,50.348557 295.261047,50.348557 292.434143,50.348557 
	C292.434143,66.453743 292.434143,82.153000 292.434143,97.752495 
	C295.769958,97.752495 298.707214,97.752495 302.233215,97.752495 
	C302.233215,94.195541 302.233215,90.879776 302.233215,86.388657 
	C308.840576,94.185104 314.618988,101.284760 326.086090,96.912384 
	C324.478638,95.652351 323.176178,94.631409 321.374786,93.113129 
M169.371902,76.219238 
	C169.371902,74.288010 169.371902,72.356781 169.371902,69.938789 
	C164.021744,69.938789 159.428192,69.938789 154.730072,69.938789 
	C154.730072,66.841064 154.730072,64.241211 154.730072,61.064960 
	C160.041428,61.064960 165.112717,61.064960 170.334000,61.064960 
	C170.334000,57.754093 170.334000,55.027462 170.334000,52.220474 
	C161.440247,52.220474 152.881531,52.220474 144.211151,52.220474 
	C144.211151,67.556938 144.211151,82.588669 144.211151,97.647713 
	C147.724319,97.647713 150.925934,97.647713 154.689087,97.647713 
	C154.689087,91.569695 154.689087,85.844635 154.689087,79.647682 
	C158.884567,79.647682 162.527740,79.852509 166.123245,79.528389 
	C167.267822,79.425217 168.285645,77.915886 169.371902,76.219238 
M329.523132,71.955055 
	C329.067108,72.438515 328.565338,72.886757 328.162140,73.410835 
	C323.509735,79.457787 323.313354,87.515350 327.660309,93.303299 
	C331.963776,99.033363 337.859863,100.155655 345.861328,96.816719 
	C346.496979,96.551483 347.290710,96.373032 347.946259,96.496803 
	C351.189514,97.109200 354.411041,97.836838 357.739532,98.544968 
	C357.739532,88.039139 357.739532,78.802444 357.739532,69.205673 
	C354.971588,69.205673 352.503021,69.119057 350.044128,69.236000 
	C348.393188,69.314522 346.515625,70.319450 345.154877,69.806908 
	C339.749847,67.770996 334.778656,67.954163 329.523132,71.955055 
M247.978806,86.480873 
	C247.978806,78.072021 247.978806,69.663162 247.978806,60.901863 
	C252.020096,60.901863 255.286530,60.901863 258.677795,60.901863 
	C258.677795,57.789234 258.677795,55.058361 258.677795,52.223171 
	C247.851105,52.223171 237.302368,52.223171 226.646118,52.223171 
	C226.646118,55.279789 226.646118,58.014011 226.646118,61.169930 
	C230.233124,61.169930 233.503006,61.169930 237.344971,61.169930 
	C237.344971,73.635666 237.344971,85.690086 237.344971,97.697296 
	C241.183929,97.697296 244.431030,97.697296 247.978806,97.697296 
	C247.978806,94.080223 247.978806,90.776939 247.978806,86.480873 
M207.555023,76.394463 
	C211.549500,76.476097 213.136673,78.738525 213.124466,82.494713 
	C213.107925,87.586044 213.120377,92.677467 213.120377,97.748215 
	C216.798111,97.748215 219.726761,97.748215 223.111115,97.748215 
	C223.111115,92.044106 223.134430,86.596786 223.106094,81.149734 
	C223.052078,70.767151 215.077347,65.727509 205.440399,69.913269 
	C204.519592,70.313232 203.379807,70.547722 202.401779,70.415253 
	C199.192444,69.980537 196.010834,69.341141 192.479324,68.720810 
	C192.479324,79.068748 192.479324,88.295166 192.479324,97.750145 
	C195.817429,97.750145 198.877655,97.750145 202.330719,97.750145 
	C202.330719,92.853752 202.367142,88.217552 202.318390,83.582237 
	C202.283676,80.282875 203.269974,77.696571 207.555023,76.394463 
M278.232422,98.017448 
	C281.160004,96.170158 284.087585,94.322861 287.665649,92.065109 
	C283.231110,89.428207 280.644287,87.095291 276.314240,90.046432 
	C272.151794,92.883347 267.780426,90.176865 267.179260,84.961090 
	C273.806427,84.961090 280.394318,84.961090 286.937500,84.961090 
	C287.751099,76.201782 283.761017,70.472221 276.082794,68.939346 
	C267.325043,67.190956 259.410461,71.450127 256.955994,79.232269 
	C253.199997,91.141075 263.895081,101.039215 278.232422,98.017448 
M175.456863,80.528229 
	C175.456863,86.277084 175.456863,92.025940 175.456863,97.792953 
	C179.211929,97.792953 182.159607,97.792953 185.258530,97.792953 
	C185.258530,88.185318 185.258530,78.815659 185.258530,69.412277 
	C181.897491,69.412277 178.959641,69.412277 175.457535,69.412277 
	C175.457535,72.956688 175.457535,76.249428 175.456863,80.528229 
M176.091293,61.096745 
	C180.172150,64.080353 183.776657,63.891361 185.695724,60.434658 
	C187.527252,57.135654 186.689713,54.021049 183.446381,52.521587 
	C181.736877,51.731255 178.139694,51.926270 177.292038,53.075600 
	C175.927368,54.925964 176.132889,57.934372 176.091293,61.096745 
z"/>
<path fill="#0699B4" opacity="1.000000" stroke="none" 
	d="
M321.624268,93.361794 
	C323.176178,94.631409 324.478638,95.652351 326.086090,96.912384 
	C314.618988,101.284760 308.840576,94.185104 302.233215,86.388657 
	C302.233215,90.879776 302.233215,94.195541 302.233215,97.752495 
	C298.707214,97.752495 295.769958,97.752495 292.434143,97.752495 
	C292.434143,82.153000 292.434143,66.453743 292.434143,50.348557 
	C295.261047,50.348557 298.307739,50.348557 301.750122,50.348557 
	C301.750122,59.427399 301.750122,68.675262 301.750122,79.517227 
	C308.179138,72.511757 313.844879,66.169151 323.968414,70.021912 
	C319.928253,74.222687 315.809723,78.504936 311.226349,83.270493 
	C314.747314,86.685364 318.061066,89.899246 321.624268,93.361794 
z"/>
<path fill="#767676" opacity="1.000000" stroke="none" 
	d="
M169.366684,76.634613 
	C168.285645,77.915886 167.267822,79.425217 166.123245,79.528389 
	C162.527740,79.852509 158.884567,79.647682 154.689087,79.647682 
	C154.689087,85.844635 154.689087,91.569695 154.689087,97.647713 
	C150.925934,97.647713 147.724319,97.647713 144.211151,97.647713 
	C144.211151,82.588669 144.211151,67.556938 144.211151,52.220474 
	C152.881531,52.220474 161.440247,52.220474 170.334000,52.220474 
	C170.334000,55.027462 170.334000,57.754093 170.334000,61.064960 
	C165.112717,61.064960 160.041428,61.064960 154.730072,61.064960 
	C154.730072,64.241211 154.730072,66.841064 154.730072,69.938789 
	C159.428192,69.938789 164.021744,69.938789 169.371902,69.938789 
	C169.371902,72.356781 169.371902,74.288010 169.366684,76.634613 
z"/>
<path fill="#0699B4" opacity="1.000000" stroke="none" 
	d="
M329.795898,71.704155 
	C334.778656,67.954163 339.749847,67.770996 345.154877,69.806908 
	C346.515625,70.319450 348.393188,69.314522 350.044128,69.236000 
	C352.503021,69.119057 354.971588,69.205673 357.739532,69.205673 
	C357.739532,78.802444 357.739532,88.039139 357.739532,98.544968 
	C354.411041,97.836838 351.189514,97.109200 347.946259,96.496803 
	C347.290710,96.373032 346.496979,96.551483 345.861328,96.816719 
	C337.859863,100.155655 331.963776,99.033363 327.660309,93.303299 
	C323.313354,87.515350 323.509735,79.457787 328.162140,73.410835 
	C328.565338,72.886757 329.067108,72.438515 329.795898,71.704155 
M335.164062,85.102005 
	C336.274567,89.154457 339.165497,91.148582 342.981842,89.933464 
	C345.036530,89.279251 347.307434,86.885559 347.969147,84.797630 
	C349.203827,80.901962 346.337067,77.437592 342.470367,77.021446 
	C338.305786,76.573227 335.832062,79.012337 335.164062,85.102005 
z"/>
<path fill="#089AB4" opacity="1.000000" stroke="none" 
	d="
M247.978806,86.977264 
	C247.978806,90.776939 247.978806,94.080223 247.978806,97.697296 
	C244.431030,97.697296 241.183929,97.697296 237.344971,97.697296 
	C237.344971,85.690086 237.344971,73.635666 237.344971,61.169930 
	C233.503006,61.169930 230.233124,61.169930 226.646118,61.169930 
	C226.646118,58.014011 226.646118,55.279789 226.646118,52.223171 
	C237.302368,52.223171 247.851105,52.223171 258.677795,52.223171 
	C258.677795,55.058361 258.677795,57.789234 258.677795,60.901863 
	C255.286530,60.901863 252.020096,60.901863 247.978806,60.901863 
	C247.978806,69.663162 247.978806,78.072021 247.978806,86.977264 
z"/>
<path fill="#787878" opacity="1.000000" stroke="none" 
	d="
M207.127930,76.502159 
	C203.269974,77.696571 202.283676,80.282875 202.318390,83.582237 
	C202.367142,88.217552 202.330719,92.853752 202.330719,97.750145 
	C198.877655,97.750145 195.817429,97.750145 192.479324,97.750145 
	C192.479324,88.295166 192.479324,79.068748 192.479324,68.720810 
	C196.010834,69.341141 199.192444,69.980537 202.401779,70.415253 
	C203.379807,70.547722 204.519592,70.313232 205.440399,69.913269 
	C215.077347,65.727509 223.052078,70.767151 223.106094,81.149734 
	C223.134430,86.596786 223.111115,92.044106 223.111115,97.748215 
	C219.726761,97.748215 216.798111,97.748215 213.120377,97.748215 
	C213.120377,92.677467 213.107925,87.586044 213.124466,82.494713 
	C213.136673,78.738525 211.549500,76.476097 207.127930,76.502159 
z"/>
<path fill="#069AB4" opacity="1.000000" stroke="none" 
	d="
M277.834229,98.101883 
	C263.895081,101.039215 253.199997,91.141075 256.955994,79.232269 
	C259.410461,71.450127 267.325043,67.190956 276.082794,68.939346 
	C283.761017,70.472221 287.751099,76.201782 286.937500,84.961090 
	C280.394318,84.961090 273.806427,84.961090 267.179260,84.961090 
	C267.780426,90.176865 272.151794,92.883347 276.314240,90.046432 
	C280.644287,87.095291 283.231110,89.428207 287.665649,92.065109 
	C284.087585,94.322861 281.160004,96.170158 277.834229,98.101883 
M275.639954,79.717384 
	C276.055542,78.861206 276.471130,78.005020 276.886719,77.148834 
	C274.846832,76.440659 272.768738,75.110733 270.779877,75.232910 
	C269.344696,75.321083 268.028168,77.341095 266.658722,78.499489 
	C266.941193,78.907646 267.223633,79.315804 267.506104,79.723961 
	C269.952423,79.723961 272.398773,79.723961 275.639954,79.717384 
z"/>
<path fill="#7B7B7B" opacity="1.000000" stroke="none" 
	d="
M175.457199,80.035202 
	C175.457535,76.249428 175.457535,72.956688 175.457535,69.412277 
	C178.959641,69.412277 181.897491,69.412277 185.258530,69.412277 
	C185.258530,78.815659 185.258530,88.185318 185.258530,97.792953 
	C182.159607,97.792953 179.211929,97.792953 175.456863,97.792953 
	C175.456863,92.025940 175.456863,86.277084 175.457199,80.035202 
z"/>
<path fill="#787878" opacity="1.000000" stroke="none" 
	d="
M175.883163,60.775139 
	C176.132889,57.934372 175.927368,54.925964 177.292038,53.075600 
	C178.139694,51.926270 181.736877,51.731255 183.446381,52.521587 
	C186.689713,54.021049 187.527252,57.135654 185.695724,60.434658 
	C183.776657,63.891361 180.172150,64.080353 175.883163,60.775139 
z"/>
<path fill="#F8FCFD" opacity="1.000000" stroke="none" 
	d="
M335.117859,84.709320 
	C335.832062,79.012337 338.305786,76.573227 342.470367,77.021446 
	C346.337067,77.437592 349.203827,80.901962 347.969147,84.797630 
	C347.307434,86.885559 345.036530,89.279251 342.981842,89.933464 
	C339.165497,91.148582 336.274567,89.154457 335.117859,84.709320 
z"/>
<path fill="#D7EFF3" opacity="1.000000" stroke="none" 
	d="
M275.242523,79.720673 
	C272.398773,79.723961 269.952423,79.723961 267.506104,79.723961 
	C267.223633,79.315804 266.941193,78.907646 266.658722,78.499489 
	C268.028168,77.341095 269.344696,75.321083 270.779877,75.232910 
	C272.768738,75.110733 274.846832,76.440659 276.886719,77.148834 
	C276.471130,78.005020 276.055542,78.861206 275.242523,79.720673 
z"/>
</svg>